<svg width="867" height="234" viewBox="0 0 867 234" fill="none" xmlns="http://www.w3.org/2000/svg">
<path d="M655.977 69C676.147 69.0002 694.657 80.3621 702.7 96.8301H678.956C673.466 91.0855 664.53 87.3829 655.977 87.3828C639.637 87.3828 626.36 100.66 626.36 117C626.36 133.34 639.637 146.617 655.977 146.617C670.02 146.617 681.636 136.915 684.828 123.894H653.296V109.085H706.019V113.937C706.019 141 687.764 165 655.977 165C628.275 165 605.934 143.553 605.934 117C605.934 90.4468 628.275 69 655.977 69ZM831.173 69C849.556 69 865.003 81.2552 865.004 97.4678H844.706C843.046 91.7232 837.429 87.3828 831.173 87.3828C823.514 87.3828 817.515 91.5955 817.514 96.957C817.514 103.468 829.897 106.915 842.024 109.085C854.535 111.383 866.663 119.808 866.663 134.361C866.663 151.978 852.876 165 831.173 165C811.386 165 796.45 149.936 796.45 132.574H816.365C817.258 140.489 823.003 146.617 831.173 146.617C840.62 146.617 846.876 142.149 846.876 134.361C846.875 126.702 838.705 124.787 825.173 121.596C810.237 118.149 797.726 110.872 797.726 97.7236C797.726 80.8726 810.748 69 831.173 69ZM760.685 71.043C777.664 71.043 791.579 84.702 791.579 101.681C791.579 118.659 777.664 132.319 760.685 132.319H735.409V162.957H714.983V71.043H760.685ZM735.409 113.937H759.665C765.282 113.936 771.154 108.446 771.154 101.681C771.154 94.915 765.282 89.4261 759.665 89.4258H735.409V113.937Z" fill="#ED1C24"/>
<path d="M368.836 91.979C389.9 91.9792 406.878 108.32 406.878 128.49C406.878 148.66 389.899 164.999 368.836 165C347.772 165 330.793 148.66 330.793 128.49C330.793 108.32 347.772 91.979 368.836 91.979ZM513.696 91.979C534.632 91.9791 551.611 108.32 551.611 128.49V162.958H533.738V154.404C529.398 160.787 521.994 164.999 513.696 165C492.76 165 475.781 148.66 475.781 128.49C475.781 108.32 492.76 91.979 513.696 91.979ZM277.021 71.0425C305.872 71.0426 325.659 90.4466 325.659 117C325.659 143.553 307.149 162.957 277.021 162.958H240V71.0425H277.021ZM434.931 162.958H415.781V71.0425H434.931V162.958ZM466.845 162.958H447.696V71.0425H466.845V162.958ZM601.421 109.34C590.825 109.34 582.272 117.894 582.272 128.49V162.958H563.123V128.49C563.123 108.32 577.677 91.979 598.868 91.979H601.421V109.34ZM368.836 109.34C358.368 109.34 349.941 117.894 349.941 128.49C349.942 139.085 358.368 147.638 368.836 147.638C379.304 147.638 387.729 139.085 387.729 128.49C387.729 117.894 379.304 109.341 368.836 109.34ZM514.079 109.34C503.483 109.34 494.931 117.894 494.931 128.49C494.931 139.085 503.484 147.638 514.079 147.638C524.675 147.638 533.228 139.085 533.229 128.49C533.229 117.894 524.675 109.34 514.079 109.34ZM260.426 144.575H277.787C292.979 144.575 305.361 132.191 305.361 117C305.361 101.808 292.978 89.4253 277.787 89.4253H260.426V144.575Z" fill="#0079C1"/>
<path d="M167.965 234V177.204C167.965 177.204 154.347 145.398 90.7921 145.398L167.965 234Z" fill="#0079C1"/>
<path d="M86.7348 121.14C81.3513 110.187 122.547 87.0775 154.86 91.4105C164.452 92.6968 168.455 98.7809 167.97 105.249V117.929L159.418 120.409V118.822C158.047 119.731 156.525 120.518 154.86 121.14C142.293 125.834 92.1188 132.093 86.7348 121.14Z" fill="#0079C1"/>
<path d="M167.966 85.7568C166.068 84.1703 163.654 83.0397 160.706 82.5664C128.203 77.3484 86.6725 99.5249 92.0879 112.715C97.5035 125.905 148.066 124.021 160.706 118.368C163.618 117.066 166.043 115.163 167.966 112.905V168.116C167.934 168.056 140.647 116.015 0 145.398L167.966 0V85.7568Z" fill="#ED1C24"/>
</svg>
